<svg width="429" height="83.70577067651391" viewBox="0 0 374.89473684210526 73.14884118866502" class="css-1j8o68f">
<defs id="SvgjsDefs1506"></defs>
<g id="SvgjsG1507" featurekey="nRdZyp-0" transform="matrix(1.023391812865497,0,0,1.023391812865497,-5.116959064327485,-15.244623931527835)" fill="#070d59">
    <path xmlns="http://www.w3.org/2000/svg" fill-rule="evenodd" clip-rule="evenodd" d="M92.5285187,14.8961754L72.3354797,31.022337  c0,0-8.8635406,6.5809231-10.1633186,18.2006702l13.6613731-10.8255768  C83.5177078,32.3083496,89.3086014,24.1565723,92.5285187,14.8961754z"></path>
    <path xmlns="http://www.w3.org/2000/svg" fill-rule="evenodd" clip-rule="evenodd" d="M24.1664658,38.3974304l13.6613731,10.8255768  C36.5280609,37.60326,27.6645184,31.022337,27.6645184,31.022337L7.4714789,14.8961754  C10.6913815,24.1565723,16.4822922,32.3083496,24.1664658,38.3974304z"></path>
    <path xmlns="http://www.w3.org/2000/svg" fill-rule="evenodd" clip-rule="evenodd" d="M50,75.8168182c-3.1293068-3.0203857-5.9778557-4.3379974-5.9778557-4.3379974  L21.8298531,60.308197c4.8643284,8.074852,11.9238243,14.6005554,20.3554039,18.8163757l3.660759,1.8303909  c-0.9784088,1.5820541-1.8557549,3.3817673-2.5282135,5.4180756L50,83.0319214l6.6821976,3.3411179  c-0.6724586-2.0363083-1.5498047-3.8360214-2.5282135-5.4180756l3.660759-1.8303909  c8.4316025-4.2158203,15.4910736-10.7415237,20.355423-18.8163757L55.9778557,71.4788208  C55.9778557,71.4788208,53.1293068,72.7964325,50,75.8168182z"></path>
    <path xmlns="http://www.w3.org/2000/svg" fill-rule="evenodd" clip-rule="evenodd" d="M67.685173,49.3397369c0,0-11.2916908,6.6234131-14.500473,20.8909988  L71.0340347,59.005619C81.4154358,52.476963,89.7270813,43.1317787,95,32.0595551L67.685173,49.3397369z"></path>
    <path xmlns="http://www.w3.org/2000/svg" fill-rule="evenodd" clip-rule="evenodd" d="M46.8153,70.2307358  C43.6065178,55.96315,32.3148117,49.3397369,32.3148117,49.3397369L5,32.0595551  c5.2728977,11.0722237,13.5845642,20.417408,23.9659481,26.946064L46.8153,70.2307358z"></path>
</g>
<g id="SvgjsG1508" featurekey="Q4qmbg-0" transform="matrix(3.1664408606061305,0,0,3.1664408606061305,114.97347827197754,-18.537751092427193)" fill="#070d59">
    <path d="M7.9 16.46 l2.08 1.88 c-1.12 1.24 -2.58 1.82 -4.14 1.82 c-2.88 0 -5.2 -2.16 -5.2 -5.08 s2.32 -5.1 5.2 -5.1 c1.56 0 3.02 0.58 4.14 1.82 l-2.08 1.88 c-0.44 -1.02 -1.4 -1.26 -2.06 -1.26 c-1.22 0 -2.24 1.08 -2.24 2.66 c0 1.56 1.02 2.64 2.24 2.64 c0.66 0 1.64 -0.18 2.06 -1.26 z M15.907708333333332 12.42 c-1.22 0 -2.24 1.08 -2.24 2.66 c0 1.56 1.02 2.64 2.24 2.64 c1.24 0 2.26 -1.08 2.26 -2.64 c0 -1.58 -1.02 -2.66 -2.26 -2.66 z M15.907708333333332 9.98 c2.9 0 5.22 2.18 5.22 5.1 s-2.32 5.08 -5.22 5.08 c-2.88 0 -5.2 -2.16 -5.2 -5.08 s2.32 -5.1 5.2 -5.1 z M38.315416666666664 20 l-2.98 0 l0 -5.64 c0 -1.52 -0.42 -2.16 -1.54 -2.16 c-1.2 0 -1.9 0.64 -1.9 2.16 l0 5.64 l-2.98 0 l0 -5.64 c0 -1.52 -0.4 -2.16 -1.54 -2.16 c-1.2 0 -1.92 0.64 -1.92 2.16 l0 5.64 l-2.96 0 l0 -9.88 l2.96 0 l0 0.9 c0.7 -0.7 1.76 -1.04 2.7 -1.04 c1.4 0 2.3 0.52 2.94 1.34 c0.54 -0.66 1.7 -1.26 3.44 -1.34 c2.78 0 3.78 1.32 3.78 4.38 l0 5.64 z M50.263124999999995 15.08 c0 2.92 -1.94 5.08 -4.84 5.08 c-0.6 0 -1.78 -0.36 -2.24 -0.82 l0 5.3 l-2.96 0 l0 -14.52 l2.96 0 l0 0.7 c0.42 -0.5 1.18 -0.84 2.04 -0.84 c2.9 0 5.04 2.18 5.04 5.1 z M47.283125 15.08 c0 -1.58 -1.02 -2.86 -2.26 -2.86 c-0.76 0 -1.5 0.56 -1.9 1.36 c-0.18 0.4 -0.32 0.96 -0.32 1.5 c0 0.56 0.12 1.06 0.32 1.48 c0.42 0.82 1.12 1.36 1.9 1.36 c1.24 0 2.26 -1.28 2.26 -2.84 z M53.77083333333333 13.04 l-2.2 -1.26 c1.1 -1.24 2.58 -1.82 4.12 -1.82 c2.96 0 4.16 1.62 4.16 3.14 l0 6.9 l-2.96 0 l0 -0.7 c-0.46 0.48 -1.28 0.84 -2.2 0.84 c-2.7 0 -3.74 -1.2 -3.74 -3.04 c0 -2.08 1.68 -3.48 4.4 -3.48 l1.54 0 c0 -0.74 -0.56 -1.22 -1.4 -1.22 c-0.86 0 -1.28 0.16 -1.72 0.64 z M56.89083333333333 16.740000000000002 l0 -0.88 l-1.74 0 c-0.78 0 -1.36 0.54 -1.24 1.3 c0.08 0.54 0.56 0.76 1.24 0.76 c1.3 0 1.74 -0.74 1.74 -1.18 z M70.79854166666667 14.36 l0 5.64 l-2.96 0 l0 -5.64 c0 -1.5 -0.4 -2.16 -1.56 -2.16 c-1.2 0 -1.9 0.66 -1.9 2.16 l0 5.64 l-2.96 0 l0 -9.88 l2.96 0 l0 0.94 c0.76 -0.74 1.8 -1.08 2.66 -1.08 c2.78 0 3.76 1.34 3.76 4.38 z M79.00625 10.12 l3.08 0 s-2.56 6.02 -4.06 9.6 c-1.34 3.18 -2.32 5.1 -4.46 5.1 c-0.88 0 -1.94 -0.86 -2.24 -1.1 l0.86 -2.44 c0.4 0.38 0.92 0.62 1.34 0.62 c1.02 0 1.56 -2.06 1.9 -3.26 l-3.62 -8.52 l3.08 0 l2.06 4.94 c0.66 -1.6 1.42 -3.42 2.06 -4.94 z"></path>
</g>
</svg>