<?xml version="1.0" encoding="UTF-8" standalone="no"?>
<!DOCTYPE svg PUBLIC "-//W3C//DTD SVG 1.1//EN" "http://www.w3.org/Graphics/SVG/1.1/DTD/svg11.dtd">
<svg width="100%" height="100%" viewBox="0 0 429 84" version="1.1" xmlns="http://www.w3.org/2000/svg" xmlns:xlink="http://www.w3.org/1999/xlink" xml:space="preserve" xmlns:serif="http://www.serif.com/" style="fill-rule:evenodd;clip-rule:evenodd;stroke-linejoin:round;stroke-miterlimit:2;">
    <g id="SvgjsG1507" transform="matrix(1.02339,0,0,1.02339,-5.85544,-17.4447)">
        <path d="M105.882,17.046L82.775,35.5C82.775,35.5 72.632,43.03 71.145,56.327L86.778,43.939C95.571,36.971 102.198,27.643 105.882,17.046Z" style="fill:white;"/>
        <path d="M27.654,43.939L43.287,56.327C41.8,43.03 31.657,35.5 31.657,35.5L8.55,17.046C12.234,27.643 18.861,36.971 27.654,43.939Z" style="fill:white;"/>
        <path d="M57.216,86.759C53.635,83.303 50.375,81.795 50.375,81.795L24.98,69.012C30.547,78.252 38.625,85.72 48.273,90.544L52.463,92.638C51.343,94.449 50.339,96.508 49.569,98.839L57.216,95.015L64.863,98.839C64.093,96.508 63.089,94.449 61.97,92.638L66.159,90.544C75.807,85.72 83.885,78.252 89.452,69.012L64.057,81.795C64.057,81.795 60.797,83.303 57.216,86.759Z" style="fill:white;"/>
        <path d="M77.454,56.461C77.454,56.461 64.532,64.04 60.86,80.367L81.286,67.521C93.165,60.051 102.677,49.357 108.711,36.686L77.454,56.461Z" style="fill:white;"/>
        <path d="M53.572,80.367C49.9,64.04 36.979,56.461 36.979,56.461L5.722,36.686C11.755,49.357 21.267,60.051 33.146,67.521L53.572,80.367Z" style="fill:white;"/>
    </g>
    <g id="SvgjsG1508" transform="matrix(3.16644,0,0,3.16644,131.567,-21.2131)">
        <path d="M9.04,18.836L11.42,20.987C10.139,22.406 8.468,23.07 6.683,23.07C3.387,23.07 0.732,20.598 0.732,17.256C0.732,13.915 3.387,11.42 6.683,11.42C8.468,11.42 10.139,12.084 11.42,13.503L9.04,15.654C8.537,14.487 7.438,14.212 6.683,14.212C5.287,14.212 4.12,15.448 4.12,17.256C4.12,19.042 5.287,20.277 6.683,20.277C7.438,20.277 8.56,20.071 9.04,18.836ZM18.204,14.212C16.807,14.212 15.64,15.448 15.64,17.256C15.64,19.042 16.807,20.277 18.204,20.277C19.622,20.277 20.79,19.042 20.79,17.256C20.79,15.448 19.622,14.212 18.204,14.212ZM18.204,11.42C21.522,11.42 24.177,13.915 24.177,17.256C24.177,20.598 21.522,23.07 18.204,23.07C14.908,23.07 12.253,20.598 12.253,17.256C12.253,13.915 14.908,11.42 18.204,11.42ZM43.845,22.886L40.435,22.886L40.435,16.432C40.435,14.693 39.954,13.961 38.673,13.961C37.3,13.961 36.499,14.693 36.499,16.432L36.499,22.886L33.089,22.886L33.089,16.432C33.089,14.693 32.631,13.961 31.326,13.961C29.953,13.961 29.129,14.693 29.129,16.432L29.129,22.886L25.742,22.886L25.742,11.581L29.129,11.581L29.129,12.61C29.93,11.809 31.143,11.42 32.219,11.42C33.821,11.42 34.851,12.015 35.583,12.954C36.201,12.198 37.528,11.512 39.52,11.42C42.701,11.42 43.845,12.931 43.845,16.432L43.845,22.886ZM57.517,17.256C57.517,20.598 55.297,23.07 51.979,23.07C51.292,23.07 49.942,22.658 49.415,22.131L49.415,28.196L46.028,28.196L46.028,11.581L49.415,11.581L49.415,12.382C49.896,11.809 50.766,11.42 51.75,11.42C55.068,11.42 57.517,13.915 57.517,17.256ZM54.107,17.256C54.107,15.448 52.94,13.984 51.521,13.984C50.651,13.984 49.804,14.624 49.347,15.54C49.141,15.998 48.981,16.638 48.981,17.256C48.981,17.897 49.118,18.469 49.347,18.95C49.827,19.888 50.628,20.506 51.521,20.506C52.94,20.506 54.107,19.042 54.107,17.256ZM61.531,14.922L59.014,13.48C60.272,12.061 61.966,11.397 63.728,11.397C67.115,11.397 68.489,13.251 68.489,14.991L68.489,22.886L65.101,22.886L65.101,22.085C64.575,22.635 63.637,23.047 62.584,23.047C59.494,23.047 58.304,21.673 58.304,19.568C58.304,17.188 60.227,15.586 63.339,15.586L65.101,15.586C65.101,14.739 64.461,14.19 63.499,14.19C62.515,14.19 62.035,14.373 61.531,14.922ZM65.101,19.156L65.101,18.149L63.11,18.149C62.218,18.149 61.554,18.767 61.691,19.637C61.783,20.254 62.332,20.506 63.11,20.506C64.598,20.506 65.101,19.659 65.101,19.156ZM81.016,16.432L81.016,22.886L77.629,22.886L77.629,16.432C77.629,14.716 77.171,13.961 75.844,13.961C74.471,13.961 73.67,14.716 73.67,16.432L73.67,22.886L70.283,22.886L70.283,11.581L73.67,11.581L73.67,12.656C74.539,11.809 75.73,11.42 76.714,11.42C79.895,11.42 81.016,12.954 81.016,16.432ZM90.409,11.581L93.933,11.581C93.933,11.581 91.004,18.469 89.287,22.566C87.754,26.205 86.632,28.402 84.183,28.402C83.176,28.402 81.963,27.418 81.62,27.143L82.604,24.351C83.062,24.786 83.657,25.061 84.138,25.061C85.305,25.061 85.923,22.703 86.312,21.33L82.169,11.581L85.694,11.581L88.051,17.233C88.806,15.403 89.676,13.32 90.409,11.581Z" style="fill:white;fill-rule:nonzero;"/>
    </g>
</svg>
